<svg version="1.1" xmlns="http://www.w3.org/2000/svg" style="display: block;" viewBox="0 0 2048 2048" width="1254" height="1254" preserveAspectRatio="none">
<defs>
	<linearGradient id="Gradient1" gradientUnits="userSpaceOnUse" x1="767.616" y1="1571.39" x2="755.479" y2="1533.9">
		<stop class="stop0" offset="0" stop-opacity="1" stop-color="rgb(75,93,115)"/>
		<stop class="stop1" offset="1" stop-opacity="1" stop-color="rgb(91,115,136)"/>
	</linearGradient>
	<linearGradient id="Gradient2" gradientUnits="userSpaceOnUse" x1="980.33" y1="1089.47" x2="713.831" y2="804.709">
		<stop class="stop0" offset="0" stop-opacity="1" stop-color="rgb(56,70,84)"/>
		<stop class="stop1" offset="1" stop-opacity="1" stop-color="rgb(78,97,115)"/>
	</linearGradient>
	<linearGradient id="Gradient3" gradientUnits="userSpaceOnUse" x1="1022.76" y1="1008" x2="1358.11" y2="863.001">
		<stop class="stop0" offset="0" stop-opacity="1" stop-color="rgb(134,126,116)"/>
		<stop class="stop1" offset="1" stop-opacity="1" stop-color="rgb(183,176,164)"/>
	</linearGradient>
	<linearGradient id="Gradient4" gradientUnits="userSpaceOnUse" x1="882.665" y1="969.827" x2="1126.82" y2="706.013">
		<stop class="stop0" offset="0" stop-opacity="1" stop-color="rgb(51,49,46)"/>
		<stop class="stop1" offset="1" stop-opacity="1" stop-color="rgb(121,113,103)"/>
	</linearGradient>
</defs>
<path transform="translate(0,0)" fill="rgb(13,17,21)" d="M 0 0 L 2048 0 L 2048 2048 L 0 2048 L 0 0 z"/>
<path transform="translate(0,0)" fill="rgb(203,193,181)" d="M 849.463 955.024 L 848.074 955.646 L 847.678 954.653 C 852.011 944.457 871.897 911.572 878.066 900.781 C 899.33 863.039 920.906 825.474 942.791 788.088 C 948.342 778.607 954.574 768.415 959.813 758.717 C 965.567 748.067 969.999 738.042 977.087 728.115 C 986.729 714.612 1003.31 712.43 1016.1 704.241 C 1034.59 692.406 1203.03 583.022 1204.46 582.805 L 1203.93 585.09 C 1199.65 595.348 1183.1 622.104 1176.81 632.84 C 1162.47 657.73 1148.37 682.755 1134.51 707.912 C 1121.46 731.261 1108.42 754.609 1095.45 778.029 C 1088.53 790.523 1083.97 804.712 1074.93 815.709 C 1063.27 829.904 1049.73 832.35 1034.49 840.724 C 1025.89 845.455 1015.6 852.163 1007.06 857.461 L 905.739 920.454 C 895.621 926.841 856.923 952.607 849.463 955.024 z"/>
<path transform="translate(0,0)" fill="url(#Gradient4)" d="M 1110.53 682.315 L 1111.19 684.205 C 1108.86 686.868 1106.8 688.065 1106.87 690.69 C 1109.72 692.169 1115.29 694.969 1117.65 696.855 C 1123.16 701.261 1123.27 710.06 1130.9 710.092 L 1134.51 707.912 C 1121.46 731.261 1108.42 754.609 1095.45 778.029 C 1088.53 790.523 1083.97 804.712 1074.93 815.709 C 1063.27 829.904 1049.73 832.35 1034.49 840.724 C 1025.89 845.455 1015.6 852.163 1007.06 857.461 L 905.739 920.454 C 895.621 926.841 856.923 952.607 849.463 955.024 C 854.952 946.492 878.753 922.785 887.184 913.778 C 924.329 874.425 961.711 835.297 999.328 796.395 C 988.514 784.1 988.27 766.925 997.429 753.613 C 1002.93 745.462 1011.57 739.958 1021.28 738.411 C 1032.51 736.675 1040 739.991 1048.71 746.165 C 1069.04 725.375 1089.49 702.188 1110.53 682.315 z"/>
<path transform="translate(0,0)" fill="rgb(13,17,21)" d="M 999.328 796.395 C 988.514 784.1 988.27 766.925 997.429 753.613 C 1002.93 745.462 1011.57 739.958 1021.28 738.411 C 1032.51 736.675 1040 739.991 1048.71 746.165 C 1057.76 757.154 1059.87 762.696 1058.49 777.494 C 1052.5 795.549 1040.57 806.652 1020.62 805.792 C 1015.97 803.196 1010.81 806.377 999.328 796.395 z"/>
<path transform="translate(0,0)" fill="rgb(125,118,108)" d="M 1058.49 777.494 C 1061.18 796.015 1037.08 810.999 1019.38 807.232 L 1019.27 806.259 L 1020.62 805.792 C 1040.57 806.652 1052.5 795.549 1058.49 777.494 z"/>
<path transform="translate(0,0)" fill="rgb(125,118,108)" d="M 1110.53 682.315 C 1114.69 675.669 1144.02 646.116 1151.08 639.522 C 1167.15 624.497 1187.5 598.081 1203.93 585.09 C 1199.65 595.348 1183.1 622.104 1176.81 632.84 C 1162.47 657.73 1148.37 682.755 1134.51 707.912 L 1130.9 710.092 C 1123.27 710.06 1123.16 701.261 1117.65 696.855 C 1115.29 694.969 1109.72 692.169 1106.87 690.69 C 1106.8 688.065 1108.86 686.868 1111.19 684.205 L 1110.53 682.315 z"/>
<path transform="translate(0,0)" fill="rgb(174,145,110)" d="M 1048.47 465.87 C 1114.42 465.733 1185.21 498.054 1234.21 541.356 C 1293.6 594.557 1329.33 669.24 1333.5 748.867 C 1319.01 748.611 1304.06 748.785 1289.53 748.773 C 1287.61 696.749 1262.7 636.812 1228.29 598.112 C 1178.68 542.309 1121.51 515.963 1048.46 510.187 C 1048.37 495.415 1048.37 480.642 1048.47 465.87 z"/>
<path transform="translate(0,0)" fill="rgb(203,193,181)" d="M 997.517 467.424 C 1000.49 467.14 999.299 466.671 1001.38 468.216 C 1002.96 475.01 1002.18 503.418 1002.1 511.662 C 954.811 515.143 901.995 536.481 864.837 565.599 C 803.873 613.372 771.809 673.186 761.809 748.875 C 749.319 748.64 736.283 748.838 723.75 748.858 L 720.18 748.447 C 717.043 743.897 721.456 723.766 722.664 717.553 C 732.187 667.784 753.917 621.158 785.905 581.859 C 838.343 517.001 914.534 475.798 997.517 467.424 z"/>
<path transform="translate(0,0)" fill="url(#Gradient3)" d="M 1289.25 795.949 L 1332.89 796.039 C 1327.48 849.421 1311.73 897.547 1281.23 942.11 C 1235.69 1008.94 1165.38 1054.85 1085.87 1069.67 C 1074.09 1072.12 1060.39 1073.61 1048.41 1074.67 C 1048.49 1060.14 1048.48 1045.62 1048.38 1031.09 C 1180.01 1018.19 1273.05 926.957 1289.25 795.949 z"/>
<path transform="translate(0,0)" fill="url(#Gradient2)" d="M 718.719 795.968 L 762.601 796.01 C 765.423 844.66 791.223 900.082 822.425 937.046 C 867.523 990.852 932.188 1024.49 1002.13 1030.52 L 1002.09 1074.18 C 943.935 1071.36 879.034 1044.96 834.217 1008.63 C 765.319 952.789 728.817 882.792 718.719 795.968 z"/>
<path transform="translate(0,0)" fill="rgb(203,193,181)" d="M 1193.47 1206.69 L 1215.03 1206.77 L 1214.96 1387.94 L 1192.03 1388.11 L 1192 1275.5 L 1191.97 1243.2 C 1167.25 1269.32 1138.9 1301.68 1115.46 1328.96 L 1100.14 1328.98 C 1074.61 1301.76 1048.9 1271.14 1023.71 1243.12 C 1022.8 1290.98 1023.59 1340.01 1023.45 1388.02 L 1000.77 1388 L 1000.52 1206.69 L 1022.44 1206.87 C 1049.64 1235.2 1081.23 1273.04 1107.65 1302.94 C 1136.31 1272.08 1164.78 1238.14 1193.47 1206.69 z"/>
<path transform="translate(0,0)" fill="rgb(203,193,181)" d="M 593.024 1206.88 C 645.808 1205.92 701.57 1206.88 754.594 1206.92 L 754.545 1221.64 C 712.636 1269.72 668.106 1318.07 625.616 1365.98 L 755.368 1366.15 L 755.514 1388.04 C 700.985 1387 643.129 1388.01 588.33 1388.08 L 588.281 1373.82 C 630.958 1325.33 673.893 1277.08 717.085 1229.05 C 676.116 1228.57 634.048 1228.98 593.005 1228.97 L 593.024 1206.88 z"/>
<path transform="translate(0,0)" fill="rgb(203,193,181)" d="M 1326.08 1206.7 L 1349.39 1206.82 C 1350 1237.2 1349.71 1270.97 1349.27 1301.77 C 1346.75 1346.04 1365.31 1366.48 1409.68 1366.63 C 1479.42 1366.86 1477.23 1334.68 1477.18 1280.26 L 1477.09 1206.85 L 1499.94 1206.77 L 1499.9 1227.93 L 1500 1282.31 C 1500.04 1311.23 1503.24 1344.94 1481.12 1367.19 C 1450.39 1398.23 1375.76 1398.01 1344.91 1367.57 C 1322.02 1344.98 1326.06 1307.84 1326.09 1278.03 L 1326.08 1206.7 z"/>
<path transform="translate(0,0)" fill="rgb(203,193,181)" d="M 386.806 1206.85 L 406.791 1206.65 C 438.322 1267.19 471.856 1327.3 502.947 1387.95 L 476.826 1388 L 399.896 1244.09 C 398.633 1241.84 398.212 1241.38 396.679 1239.3 C 394.17 1241.25 322.694 1375.93 316.247 1388.03 L 290.282 1388 C 322.057 1327.4 354.232 1267.02 386.806 1206.85 z"/>
<path transform="translate(0,0)" fill="rgb(47,48,51)" d="M 1192.76 642.326 C 1200.18 647.327 1207.85 662.083 1212.28 669.861 C 1232.15 704.76 1240.66 743.287 1238.85 783.325 C 1236.02 839.245 1211.1 891.754 1169.58 929.314 C 1132.5 962.951 1076.82 986.1 1026.56 983.71 C 1030.38 1019.86 1025.27 1061.22 1027.87 1097.78 C 1028.19 1102.33 1028.29 1107.83 1025.12 1111.23 L 1022.96 1110.57 C 1020.96 1105.83 1022.19 997.602 1022.29 983.964 C 997.132 984.345 969.41 978.328 946.015 969.16 C 938.351 966.156 909.252 952.706 905.425 946.073 L 906.594 944.688 C 910.731 943.999 909.863 944.456 912.76 942.386 C 915.021 940.772 928.406 949.594 930.78 950.95 C 960.801 967.191 988.477 972.724 1022.11 974.287 C 1021.9 963.026 1020.71 884.96 1024.29 879.904 C 1026.41 882.401 1027.75 887.053 1027.68 890.22 C 1027 918.06 1028.29 946.605 1027.46 974.376 C 1091.24 972.296 1147.86 947.054 1186.95 895.774 C 1213.66 860.738 1229.03 819.005 1229.09 774.843 C 1216.96 775.067 1142.61 776.582 1135.28 774.324 L 1134.46 772.668 L 1135.66 770.802 C 1139.84 767.809 1159.57 769.053 1165.69 769.079 C 1186.76 769.287 1207.83 769.24 1228.9 768.937 C 1228.12 726.053 1215.31 689.01 1190.57 653.862 C 1191.11 650.055 1191.99 646.11 1192.76 642.326 z"/>
<path transform="translate(0,0)" fill="rgb(203,193,181)" d="M 1596.67 1206.82 L 1764.23 1206.8 L 1764.33 1228.97 L 1691.95 1229.02 L 1691.77 1318.25 C 1691.84 1341.5 1691.8 1364.75 1691.64 1388 L 1668.84 1388.14 L 1668.88 1228.99 L 1596.58 1228.98 C 1596.41 1221.66 1596.58 1214.15 1596.67 1206.82 z"/>
<path transform="translate(0,0)" fill="rgb(203,193,181)" d="M 862.025 1206.82 L 884.691 1206.83 L 884.787 1387.97 L 862.017 1387.98 L 862.025 1206.82 z"/>
<path transform="translate(0,0)" fill="rgb(47,48,51)" d="M 1023.56 427.442 C 1024.55 427.807 1026.62 428.52 1026.67 429.35 C 1028.09 453.915 1028.84 542.842 1026.75 560.007 C 1067.49 560.37 1110.56 573 1144.58 596.303 C 1146.92 597.905 1146.5 597.435 1146.79 599.597 C 1143.08 598.826 1133.85 590.248 1128.46 587.695 C 1107.31 577.682 1089.19 569.92 1065.91 565.387 C 1010.09 554.97 952.414 567.019 905.435 598.914 C 862.393 628.219 831.785 672.482 819.56 723.099 C 816.353 736.373 814.972 750.552 812.996 764.026 C 812.248 769.128 814.672 796.449 815.432 801.246 C 819.883 829.342 828.716 858.521 844.697 882.311 C 847.841 886.991 846.911 889.644 850.913 892.628 C 853.833 892.726 852.384 893.003 855.146 890.847 C 855.451 888.992 856.001 887.133 854.705 885.352 C 832.287 854.551 820.673 811.743 821 774 L 879 774 C 886.613 774.028 908.779 775.516 914.024 772.099 C 910.709 770.31 831.323 770.998 821 771 C 820.972 768.412 820.97 765.824 820.993 763.235 C 821.288 714.104 846.786 661.236 881.656 627.092 C 919.444 590.236 970.216 569.729 1023 570 C 1022.94 575.347 1023.14 581.491 1023.37 586.883 C 1024.37 610.02 1019.93 638.659 1025.07 660.925 C 1027.91 657.878 1023.71 575.961 1026.99 570.436 L 1029.75 570 C 1056.68 569.494 1085.16 575.831 1109.81 586.384 C 1116.75 589.356 1135.88 599.653 1141.74 603.881 L 1141.22 604.436 C 1135.79 603.072 1121.37 593.672 1114.89 590.637 C 1086.54 577.34 1059.15 571.314 1028.05 570.979 C 1027.59 583.757 1029.01 658.978 1025.88 664.119 L 1024.38 664.096 C 1020.41 659.525 1022.07 639.224 1022.08 631.86 L 1021.9 570.942 C 970.714 571.477 921.63 591.401 884.55 626.696 C 845.385 664.021 822.827 715.497 821.931 769.592 C 834.387 769.18 911.299 767.571 917.55 771.178 L 915.66 770.04 L 916.251 772.472 C 906.156 777.045 887.666 775.134 876.001 775.094 L 822.312 775.108 C 823.149 810.447 830.972 840.376 847.217 871.852 C 850.027 877.297 860.278 888.863 859.658 893.918 L 858.693 892.508 L 857.351 892.309 C 854.266 895.513 855.231 894.342 854.086 899.191 L 852.794 898.951 L 854.274 898.044 L 851.964 897.769 C 828.77 861.204 814.926 828.545 812.209 784.428 C 809.223 727.945 828.807 672.592 866.651 630.555 C 908.195 584.144 961.695 563.49 1022.74 560.194 C 1021.61 548.622 1020.92 432.239 1023.56 427.442 z"/>
<path transform="translate(0,0)" fill="rgb(83,103,125)" d="M 366.62 1329.5 C 382.927 1329.25 399.236 1329.19 415.544 1329.31 C 418.249 1334.81 432.067 1356.51 430.802 1360.35 L 383.002 1360.66 C 380.02 1355.42 367.61 1334.32 366.62 1329.5 z"/>
<path transform="translate(0,0)" fill="rgb(83,103,125)" d="M 476.366 1533.21 C 500.542 1534.81 504.788 1563.58 481.342 1572.45 C 471.486 1572.11 463.766 1569.28 460.499 1558.91 C 458.815 1553.74 459.307 1548.11 461.863 1543.31 C 465.252 1536.99 469.879 1534.98 476.366 1533.21 z"/>
<path transform="translate(0,0)" fill="rgb(13,17,21)" d="M 476.873 1539.98 C 492.154 1542.15 492.763 1557.58 480.906 1565.99 C 463.804 1564.11 462.853 1545.71 476.873 1539.98 z"/>
<path transform="translate(0,0)" fill="rgb(83,103,125)" d="M 1152.96 1534.2 C 1180.09 1531.12 1186.17 1559.86 1164.83 1571.84 C 1155.74 1572.56 1148.08 1571.68 1143.06 1562.87 C 1140.47 1558.25 1139.83 1552.79 1141.28 1547.69 C 1143.33 1540.36 1146.77 1537.77 1152.96 1534.2 z"/>
<path transform="translate(0,0)" fill="rgb(13,17,21)" d="M 1156.99 1539.85 C 1172.78 1541.17 1173.71 1556.66 1162.26 1565.89 C 1145.7 1565.26 1143.73 1548.12 1156.99 1539.85 z"/>
<path transform="translate(0,0)" fill="rgb(83,103,125)" d="M 1407.84 1534.09 C 1417.42 1533.43 1424.88 1534.1 1429.88 1543.82 C 1432.35 1548.57 1432.82 1554.12 1431.18 1559.22 C 1428.91 1566.13 1425.16 1568.82 1418.99 1571.81 C 1409.63 1572.5 1402.58 1571.39 1397.57 1562.31 C 1395.03 1557.69 1394.45 1552.25 1395.97 1547.2 C 1398.05 1540.3 1401.87 1537.29 1407.84 1534.09 z"/>
<path transform="translate(0,0)" fill="rgb(13,17,21)" d="M 1408.76 1540.99 C 1426.74 1539.17 1429.37 1555.84 1417.62 1565.54 C 1413.74 1565.84 1410.69 1566.03 1407.38 1563.46 C 1404.66 1561.31 1403.03 1558.06 1402.94 1554.59 C 1402.71 1548.41 1404.69 1545.18 1408.76 1540.99 z"/>
<path transform="translate(0,0)" fill="rgb(83,103,125)" d="M 1062.14 1464.48 C 1067.78 1463.1 1093.74 1463.51 1100.8 1463.51 L 1179.27 1463.63 L 1518.5 1464.51 C 1515.28 1466.06 1484.28 1465.89 1478.4 1465.95 L 1378.51 1466.23 C 1276.3 1466.33 1173.96 1466.47 1071.74 1466.38 C 1068.02 1466.38 1065.17 1466.59 1062.14 1464.48 z"/>
<path transform="translate(0,0)" fill="rgb(83,103,125)" d="M 538.49 1464.5 L 846.31 1463.53 L 936.182 1463.61 C 944.201 1463.62 981.14 1462.59 986.617 1465.49 C 978.297 1466.91 948.734 1466.4 939.075 1466.4 L 843.35 1466.39 L 656.977 1466.15 C 647.596 1466.14 542.629 1466.62 538.49 1464.5 z"/>
<path transform="translate(0,0)" fill="rgb(83,103,125)" d="M 1542.81 1534.18 C 1549.22 1534 1562.86 1532.85 1567.54 1536.74 C 1575.88 1543.66 1567.43 1549.49 1567.92 1553.18 C 1572.9 1559.09 1572.62 1558.67 1571.53 1566.39 C 1563.53 1573.83 1553.63 1572.07 1542.72 1571.88 C 1542.66 1559.31 1542.69 1546.75 1542.81 1534.18 z"/>
<path transform="translate(0,0)" fill="rgb(13,17,21)" d="M 1550.19 1555.38 C 1554.95 1555.19 1559.57 1554.41 1563.24 1557.29 C 1564.76 1561.16 1564.23 1560.15 1563.45 1564.9 C 1559.56 1565.18 1554.73 1566.08 1551.42 1564.42 C 1549.35 1560.87 1550.16 1560.25 1550.19 1555.38 z"/>
<path transform="translate(0,0)" fill="rgb(13,17,21)" d="M 1549.98 1540.53 C 1554.13 1540.46 1557.21 1539.99 1560.94 1541.69 C 1563.32 1544.94 1562.58 1543.89 1563.11 1548.38 C 1559.19 1549.05 1555.26 1550.27 1551.71 1548.8 C 1549.26 1545.47 1550.11 1545.63 1549.98 1540.53 z"/>
<path transform="translate(0,0)" fill="rgb(83,103,125)" d="M 1367.09 1561.54 C 1369.86 1553.49 1370.83 1537.37 1376.09 1532.96 C 1381.95 1533.49 1380.08 1538.59 1379.28 1542.24 C 1377.64 1548.68 1373.21 1571.24 1367.79 1573.26 C 1362.49 1570.32 1358.33 1553.43 1356.31 1546.98 C 1354.96 1552.39 1351.2 1574.23 1343.32 1572.43 C 1338.55 1567.59 1333.75 1542.3 1331.73 1533.89 C 1333.09 1533.96 1337.29 1533.88 1337.89 1534.67 C 1342.18 1540.4 1344.3 1553.73 1346.02 1560.47 C 1347.67 1553.99 1350.38 1534.6 1358.09 1535.43 C 1363.4 1540.62 1365.34 1553.82 1367.09 1561.54 z"/>
<path transform="translate(0,0)" fill="rgb(83,103,125)" d="M 1195.03 1534.04 C 1201.54 1533.84 1213.94 1532.6 1218.82 1536.3 C 1226.89 1542.4 1225.58 1548.84 1218.77 1554.93 C 1213.93 1559.26 1222.27 1565.04 1223.41 1570.35 C 1221.3 1572.54 1220.77 1571.76 1216.63 1571.94 C 1213.96 1567.44 1210.19 1559.57 1205.52 1557.92 C 1201.91 1561.77 1204.88 1566.96 1200.03 1571.95 L 1196.67 1571.97 C 1194.09 1569.3 1195.03 1540.22 1195.03 1534.04 z"/>
<path transform="translate(0,0)" fill="rgb(13,17,21)" d="M 1202.97 1540.98 C 1207.2 1540.77 1211.34 1540.16 1214.74 1542.59 C 1216.55 1546.7 1215.97 1545.49 1215.48 1550.54 C 1211.16 1551.82 1207.95 1553.14 1204.06 1551.03 C 1202.13 1547.81 1202.79 1544.86 1202.97 1540.98 z"/>
<path transform="translate(0,0)" fill="rgb(83,103,125)" d="M 1450.02 1534.14 C 1458.84 1533.9 1469.25 1532.78 1476.21 1539.25 C 1482.79 1545.37 1475.93 1553.69 1470.85 1557.63 C 1473.12 1561.93 1479.22 1567.78 1476.74 1571.56 L 1471.33 1571.9 C 1468.38 1566.52 1465.35 1559.76 1459.89 1556.98 L 1458.29 1557.54 C 1456.44 1561.17 1457.25 1566.18 1456.89 1570.52 C 1454.52 1572.63 1455.95 1571.83 1451.59 1571.62 C 1447.54 1567.33 1449.97 1541.14 1450.02 1534.14 z"/>
<path transform="translate(0,0)" fill="rgb(13,17,21)" d="M 1457.07 1540.58 C 1461.55 1540.57 1465.79 1540.05 1469.32 1542.63 C 1471.18 1545.72 1470.7 1546.77 1470.26 1550.37 C 1469.47 1550.62 1468.68 1550.87 1467.88 1551.11 C 1463.85 1552.29 1461.89 1552.88 1458.43 1551.01 C 1456.42 1547.9 1456.99 1544.39 1457.07 1540.58 z"/>
<path transform="translate(0,0)" fill="rgb(83,103,125)" d="M 1633.82 1533.97 L 1638.56 1534.07 C 1644.82 1536.82 1651.16 1550.23 1656.49 1556.94 L 1657.3 1557.94 C 1657.24 1550.22 1655.16 1539.85 1659.49 1534.5 C 1663.11 1534.2 1661.8 1533.58 1663.98 1535.4 C 1665.28 1541.99 1664.56 1563.85 1664.5 1572.07 L 1659.94 1571.88 C 1654.24 1569.12 1645.17 1553.18 1641.05 1546.93 C 1640.76 1554.52 1642.22 1563.41 1639.74 1570.12 C 1637 1572.28 1638.55 1571.77 1634.86 1571.45 C 1632.07 1565.46 1633.6 1541.74 1633.82 1533.97 z"/>
<path transform="translate(0,0)" fill="rgb(83,103,125)" d="M 616.777 1558.5 C 616.619 1549.17 615.839 1542.8 619.053 1534.05 L 620.546 1533.37 C 626.03 1539.33 624.534 1563.87 623.476 1572.44 C 623.067 1572.41 619.969 1572.24 619.522 1572.07 C 613.317 1569.73 603.661 1551.55 600.41 1546.21 C 600.111 1553.71 602.283 1566.78 598.134 1571.69 C 594.962 1572.18 596.399 1572.48 593.685 1570.73 C 592.306 1562.65 593.078 1543.28 593.149 1533.97 C 593.984 1533.96 597.647 1533.99 598.079 1534.2 C 603.598 1536.83 613.015 1553.16 616.777 1558.5 z"/>
<path transform="translate(0,0)" fill="url(#Gradient1)" d="M 770.092 1558.78 C 770.028 1552.25 768.279 1538.65 772.874 1534.31 L 776.019 1534.42 C 779.043 1538.93 777.53 1565.02 777.408 1572.49 C 776.652 1572.46 773.315 1572.26 772.912 1572.07 C 767.104 1569.37 757.54 1552.04 754.084 1546.68 C 754.105 1552.72 755.678 1568.14 751.254 1571.8 L 748.087 1571.42 C 745.552 1566.27 746.862 1540.92 747.008 1533.85 C 747.873 1533.84 751.039 1533.85 751.6 1534.04 C 757.2 1535.94 766.849 1553.63 770.092 1558.78 z"/>
<path transform="translate(0,0)" fill="rgb(47,48,51)" d="M 683.889 769.546 C 700.993 768.842 722.491 769.394 739.895 769.462 C 758.503 769.535 792.856 768.305 810.571 770.899 L 811.104 772.567 L 809.671 773.004 C 775.959 776.654 742.332 774.638 708.41 775.181 C 704.001 775.251 682.502 775.588 679.619 773.975 L 679.443 772.324 C 681.597 769.303 680.177 770.221 683.889 769.546 z"/>
<path transform="translate(0,0)" fill="rgb(83,103,125)" d="M 1063.14 1534.07 C 1066.68 1533.99 1068.18 1533.79 1071.69 1534.63 C 1075 1541.41 1086.47 1565.89 1082.05 1571.81 C 1078.83 1571.99 1080.14 1572.52 1077.8 1570.88 C 1076.79 1568.03 1076.4 1565.71 1073.97 1563.78 C 1069.61 1563.67 1062.71 1562.91 1059.4 1565.31 C 1058.64 1567.69 1058.22 1568.91 1057.22 1571.19 C 1054.02 1572.55 1053.79 1572.22 1050.4 1571.68 C 1050.24 1569.75 1050.04 1570.18 1050.57 1568.7 L 1063.14 1534.07 z"/>
<path transform="translate(0,0)" fill="rgb(13,17,21)" d="M 1067.28 1542.69 C 1069.86 1545.39 1071.62 1552.44 1071.7 1556.32 L 1069.61 1558.31 C 1067.79 1557.88 1066.26 1557.41 1064.47 1556.85 C 1062.54 1551.88 1065.14 1548.08 1067.28 1542.69 z"/>
<path transform="translate(0,0)" fill="rgb(47,48,51)" d="M 1262.95 769.419 C 1286.17 768.587 1310.69 770.197 1334.09 769.441 C 1344.57 769.103 1358.15 769.121 1368.41 770.211 L 1369.61 772.23 C 1364.26 776.087 1359.84 775.295 1353.3 775.148 C 1338.95 774.996 1251.54 776.456 1244.38 773.492 C 1248.98 769.403 1256.95 769.609 1262.95 769.419 z"/>
<path transform="translate(0,0)" fill="rgb(83,103,125)" d="M 357.857 1548.96 C 357.732 1544.18 357.14 1539.21 358.732 1534.85 C 361.515 1533.7 360.37 1534.05 363.755 1534.51 L 364.825 1536.13 C 365.512 1542.95 365.71 1566.5 364.148 1572.6 C 361.674 1572.2 361.564 1572.14 359.239 1571.17 C 356.998 1566.95 357.829 1560.93 357.94 1555.85 L 341.936 1555.86 C 342.044 1560.31 342.867 1568.54 340.473 1571.8 C 336.185 1571.92 337.876 1572.56 334.73 1570.85 C 333.575 1563.42 334.221 1542.81 334.215 1533.79 C 337.143 1533.85 337.798 1533.64 340.487 1534.83 C 342.907 1538.15 341.91 1544.47 341.775 1549.02 L 357.857 1548.96 z"/>
<path transform="translate(0,0)" fill="rgb(83,103,125)" d="M 1732.06 1533.68 C 1735.2 1533.84 1735.28 1533.74 1738.21 1534.74 C 1740.96 1538.48 1739.85 1543.95 1739.66 1549 L 1755.83 1549.01 C 1755.67 1544.22 1755.13 1539.69 1756.46 1535.16 C 1758.91 1533.46 1757.58 1534.14 1761.63 1534.51 C 1764.15 1538.62 1763.26 1567.23 1762.18 1572.68 C 1759.87 1572.29 1759.42 1572.15 1757.2 1571.37 C 1754.59 1567.17 1755.53 1561.02 1755.7 1555.85 L 1739.56 1555.79 C 1739.67 1560.23 1740.46 1568.47 1737.95 1571.7 C 1733.8 1571.87 1735.28 1572.6 1732.63 1570.7 C 1731.53 1563.59 1732.11 1542.5 1732.06 1533.68 z"/>
<path transform="translate(0,0)" fill="rgb(83,103,125)" d="M 1013.08 1534.25 C 1023.96 1532.7 1025.84 1533.02 1033.67 1540.44 L 1033.46 1542.54 C 1021.93 1543.21 1007.52 1535.25 1009.4 1556 C 1010.27 1565.63 1022.52 1568.06 1027.99 1562.73 C 1027.63 1559.19 1028.11 1560.92 1025.77 1557.58 C 1023.07 1557 1022.41 1556.69 1019.83 1555.63 L 1021.75 1552.84 C 1025.53 1551.32 1030.3 1551.86 1034.5 1551.94 C 1034.62 1557.07 1034.33 1562.51 1034.16 1567.66 C 1005.48 1583.48 988.456 1550.34 1013.08 1534.25 z"/>
<path transform="translate(0,0)" fill="rgb(83,103,125)" d="M 845.201 1534.17 C 851.188 1534.03 865.168 1533.22 870.47 1535.09 L 870.836 1538.14 C 866.95 1545.35 860.84 1536.68 853.369 1542.64 C 852.408 1545.83 852.311 1545.61 853.102 1548.81 C 857.786 1550.74 862.741 1548.1 867.894 1550.03 C 868.344 1553.29 868.607 1551.79 867.112 1554.69 C 863.711 1556.37 856.609 1555.81 852.408 1556.11 C 852.564 1558.83 852.869 1561.3 853.19 1564 C 858.033 1567.16 865.69 1563.27 870.679 1566 C 871.657 1568.99 871.682 1567.49 870.19 1570.62 C 866.791 1573 850.377 1571.93 845.108 1571.86 C 845.061 1559.29 845.092 1546.73 845.201 1534.17 z"/>
<path transform="translate(0,0)" fill="rgb(83,103,125)" d="M 387.557 1534.09 C 394.74 1534.09 402.39 1534 409.593 1534.15 C 412.522 1534.2 413.262 1535.82 414.522 1537.65 C 410.276 1540.95 400.382 1539.97 394.943 1543.92 C 394.396 1546.98 394.218 1545.53 395.632 1548.4 C 399.842 1550.49 402.93 1548.18 408.951 1549.3 C 411.343 1551.88 410.535 1550.32 410.714 1554.47 C 408.674 1556.32 398.384 1555.69 394.678 1555.73 C 394.39 1574.52 404.546 1560.03 412.974 1565.98 C 414.079 1568.69 414.157 1567.37 413.104 1570.03 C 408.417 1573.17 394.357 1571.97 387.506 1571.97 C 387.32 1559.55 387.538 1546.55 387.557 1534.09 z"/>
<path transform="translate(0,0)" fill="rgb(83,103,125)" d="M 1590.04 1534.13 C 1595.41 1534.03 1610.63 1533.1 1615.03 1535.07 C 1615.57 1537.75 1615.4 1537.64 1614.54 1540.3 C 1610.34 1541.9 1604.75 1540.24 1598.61 1541.25 C 1597.15 1544.31 1597.49 1544.66 1597.87 1548.01 C 1600.81 1550.67 1606.51 1547.44 1612.44 1550.09 C 1613.21 1553.02 1613.07 1551.55 1612.31 1554.57 C 1606.48 1557.82 1601.35 1552.99 1597.16 1558.02 C 1597.29 1560.86 1597.47 1561.58 1598.08 1564.38 C 1601.38 1566.07 1608.67 1565 1613.21 1564.96 C 1616.12 1566.63 1615.25 1565.46 1616.28 1568.28 L 1614.79 1570.57 C 1610.51 1572.95 1595.89 1571.96 1590.07 1571.9 L 1590.04 1534.13 z"/>
<path transform="translate(0,0)" fill="rgb(83,103,125)" d="M 1504.22 1550.61 C 1508.39 1545.29 1516.01 1534.31 1523.31 1533.98 C 1523.58 1539.72 1516.58 1546.22 1512.62 1550.81 L 1522.63 1564.89 C 1525.34 1568.69 1525.62 1567.78 1525.51 1571.49 L 1523.6 1573.04 C 1515.83 1571.6 1514.68 1562.58 1508.02 1557.08 C 1500.47 1559.72 1506.96 1566.11 1502.05 1571.73 C 1499.38 1572.04 1499.28 1572.35 1497.04 1571.06 C 1496.14 1564.37 1496.58 1541.68 1496.57 1533.87 C 1499.25 1533.92 1500.42 1533.63 1502.67 1534.98 C 1504.9 1539.08 1504.16 1545.44 1504.22 1550.61 z"/>
<path transform="translate(0,0)" fill="rgb(83,103,125)" d="M 528.028 1533.26 C 534.552 1533.84 537.75 1534.69 541.807 1539.94 C 538.808 1544.46 530.004 1539.3 524.113 1541.78 C 522.917 1544.39 523.004 1543.07 523.94 1545.86 C 529.354 1550.62 532.724 1549.7 539.036 1552.72 C 541.121 1553.87 542.767 1556.31 542.867 1558.69 C 543.354 1570.24 536.212 1571.53 527.128 1572.47 C 522.908 1571.84 515.945 1569.95 514.346 1565.62 C 517 1562.24 515.381 1563.05 518.923 1562.34 C 523.255 1564.33 531.312 1567.9 534.834 1562.78 C 531.506 1555.62 518.815 1554.9 514.066 1543.93 C 514.48 1536.7 521.604 1534.42 528.028 1533.26 z"/>
<path transform="translate(0,0)" fill="rgb(83,103,125)" d="M 899.298 1533.17 C 904.504 1533.65 912.459 1534.6 913.669 1540.76 C 908.731 1543.95 901.409 1538.1 895.704 1542.73 C 895.616 1548.98 914.346 1551.17 915.364 1559.43 C 916.415 1567.95 909.697 1570.89 903.167 1572.56 C 894.612 1571.95 892.507 1571.79 886.393 1565.7 L 886.718 1564.35 C 894.324 1562.34 901.582 1566.43 906.606 1563.66 C 907.586 1557.59 866.439 1542.36 899.298 1533.17 z"/>
<path transform="translate(0,0)" fill="rgb(83,103,125)" d="M 1272.62 1534.15 C 1278.39 1533.46 1287.31 1533.05 1290.89 1538.51 L 1290.27 1540.43 C 1284.54 1542.97 1275.12 1539.13 1272.29 1543.4 C 1276.85 1551.13 1288.56 1549.54 1293.7 1560.38 C 1293.8 1566.98 1287.3 1570.43 1281.61 1572.37 C 1276.21 1572.24 1267.88 1571.49 1264.25 1567.11 C 1264.52 1564.04 1264.02 1565.45 1266.1 1562.86 C 1272.67 1560.84 1277.02 1570.02 1284.61 1563.01 L 1284.61 1561 C 1279.16 1554.46 1265.51 1554 1264.25 1544.29 C 1265.59 1538.67 1267.73 1537.26 1272.62 1534.15 z"/>
<path transform="translate(0,0)" fill="rgb(83,103,125)" d="M 811.23 1562.39 C 814.14 1555.51 818.009 1534.78 824.587 1533.49 C 827.14 1534.72 826.142 1533.83 827.611 1536.35 L 826.432 1540.25 C 823.943 1548.01 818.383 1572.54 809.401 1571.9 C 803.982 1567.43 796.604 1542.81 793.345 1534.05 C 796.253 1533.95 797.057 1534.01 799.956 1534.36 C 804.758 1538.38 808.858 1555.3 811.23 1562.39 z"/>
<path transform="translate(0,0)" fill="rgb(83,103,125)" d="M 1693.94 1534.21 C 1701.19 1533.22 1713.29 1533.06 1713.92 1543.14 L 1712.56 1544.44 C 1704.24 1545.4 1690.2 1531.58 1689.99 1553.23 C 1689.88 1563.86 1695.46 1565.95 1704.89 1564.96 C 1708.55 1561.86 1707.38 1561.86 1711.22 1561.69 L 1712.78 1563.34 C 1711.25 1575.58 1691.22 1573.94 1686.16 1566.18 C 1678.22 1554 1682.36 1541.36 1693.94 1534.21 z"/>
<path transform="translate(0,0)" fill="rgb(83,103,125)" d="M 928.996 1534.17 C 936.47 1533.95 955.036 1532.37 960.043 1537.06 L 959.611 1538.78 C 953.79 1543.16 956.075 1539.26 948.568 1541.47 C 947.485 1544.89 947.716 1555.52 947.681 1559.75 C 947.753 1564.62 949.222 1570.92 943.983 1572.44 C 943.003 1572.08 942.023 1571.72 941.043 1571.36 C 938.862 1565.83 941.674 1544.57 938.826 1541.21 C 935.419 1541.21 934.461 1541.17 931.112 1540.68 C 928.464 1538.34 929.324 1539.02 928.996 1534.17 z"/>
<path transform="translate(0,0)" fill="rgb(83,103,125)" d="M 285.035 1534.09 C 292.686 1534.09 310.491 1531.48 315.377 1537.3 L 315.133 1539.66 C 312.227 1541.7 308.417 1541.14 304.695 1541.1 L 304.261 1560.83 C 304.337 1564.58 304.815 1568.14 303.203 1571.45 C 300.488 1572.33 301.83 1572.35 299.055 1571.17 C 295.168 1565 296.73 1549.28 296.735 1541 C 292.899 1541.12 290.743 1541.33 286.993 1540.69 C 284.592 1538.21 285.382 1538.57 285.035 1534.09 z"/>
<path transform="translate(0,0)" fill="rgb(83,103,125)" d="M 1022.05 1453.58 C 1028.38 1452.3 1034.55 1456.38 1035.85 1462.7 C 1037.16 1469.02 1033.11 1475.21 1026.79 1476.54 C 1020.44 1477.88 1014.2 1473.8 1012.89 1467.44 C 1011.57 1461.08 1015.68 1454.86 1022.05 1453.58 z"/>
<path transform="translate(0,0)" fill="rgb(83,103,125)" d="M 1096.04 1534.1 C 1103.75 1534 1121.63 1531.58 1126.49 1537.29 L 1126.24 1539.72 C 1123.17 1541.62 1119.17 1541.04 1115.4 1540.98 L 1115.2 1559.97 C 1115.37 1564.28 1115.94 1567.54 1114.28 1571.46 C 1111.92 1572.5 1113.18 1572.31 1110.36 1571.38 C 1106.17 1565.63 1107.83 1549.09 1107.86 1541 C 1104.21 1541.12 1102.19 1541.31 1098.53 1540.72 C 1095.99 1538.22 1096.77 1538.48 1096.04 1534.1 z"/>
<path transform="translate(0,0)" fill="rgb(83,103,125)" d="M 642.037 1534.12 C 650.688 1534.18 664.088 1532.22 671.156 1535.72 C 672.651 1538.42 672.489 1537.03 671.638 1540.01 C 668.623 1541.56 664.584 1541.05 661.039 1540.98 L 660.81 1560.76 C 660.948 1565.53 662.147 1569.54 658.307 1572.36 C 651.116 1572 653.381 1547.66 653.395 1541.05 C 650.026 1541.06 647.904 1541.09 644.506 1540.68 C 641.995 1538.24 642.765 1538.44 642.037 1534.12 z"/>
<path transform="translate(0,0)" fill="rgb(83,103,125)" d="M 563.231 1533.9 C 566.281 1533.94 567.803 1533.65 570.42 1535.21 C 571.639 1541.53 570.876 1564.21 570.772 1572.14 L 564.894 1571.54 C 562.507 1568.86 563.245 1539.69 563.231 1533.9 z"/>
<path transform="translate(0,0)" fill="rgb(83,103,125)" d="M 975.665 1533.93 C 978.57 1533.96 979.777 1533.75 982.442 1534.98 C 983.531 1542.86 983.143 1563.05 983.165 1571.98 C 979.806 1572.01 979.584 1572.05 976.332 1571.34 C 975.277 1567.02 975.661 1540.21 975.665 1533.93 z"/>
<path transform="translate(0,0)" fill="rgb(83,103,125)" d="M 719.062 1533.75 C 720.995 1533.98 723.043 1534.32 724.98 1534.61 C 727.3 1538.39 726.382 1566.43 726.352 1572.54 C 723.617 1572.27 721.619 1572.41 719.436 1570.83 C 718.421 1562.71 718.996 1542.7 719.062 1533.75 z"/>
<path transform="translate(0,0)" fill="rgb(83,103,125)" d="M 1240.32 1533.84 C 1245.3 1533.79 1246.35 1533.12 1248.38 1537.76 C 1247.83 1542.56 1246.66 1544.01 1244.33 1548.41 C 1241.89 1548.75 1243.01 1548.96 1240.94 1547.92 C 1241.42 1542.12 1241.32 1540.78 1240.53 1535.25 L 1240.32 1533.84 z"/>
</svg>
