<svg xmlns="http://www.w3.org/2000/svg" viewBox="640 388 770 770">
<rect x="640" y="388" width="770" height="770" rx="150" fill="rgb(13,17,21)"/>
<defs>
    <linearGradient id="az-rose-sw" gradientUnits="userSpaceOnUse" x1="980.33" y1="1089.47" x2="713.831" y2="804.709">
      <stop offset="0" stop-color="rgb(56,70,84)" />
      <stop offset="1" stop-color="rgb(78,97,115)" />
    </linearGradient>
    <linearGradient id="az-rose-se" gradientUnits="userSpaceOnUse" x1="1022.76" y1="1008" x2="1358.11" y2="863.001">
      <stop offset="0" stop-color="rgb(134,126,116)" />
      <stop offset="1" stop-color="rgb(183,176,164)" />
    </linearGradient>
    <linearGradient id="az-rose-needle" gradientUnits="userSpaceOnUse" x1="882.665" y1="969.827" x2="1126.82" y2="706.013">
      <stop offset="0" stop-color="rgb(51,49,46)" />
      <stop offset="1" stop-color="rgb(121,113,103)" />
    </linearGradient>
  </defs>
<path fill="rgb(47,48,51)" d="M 1192.76 642.326 C 1200.18 647.327 1207.85 662.083 1212.28 669.861 C 1232.15 704.76 1240.66 743.287 1238.85 783.325 C 1236.02 839.245 1211.1 891.754 1169.58 929.314 C 1132.5 962.951 1076.82 986.1 1026.56 983.71 C 1030.38 1019.86 1025.27 1061.22 1027.87 1097.78 C 1028.19 1102.33 1028.29 1107.83 1025.12 1111.23 L 1022.96 1110.57 C 1020.96 1105.83 1022.19 997.602 1022.29 983.964 C 997.132 984.345 969.41 978.328 946.015 969.16 C 938.351 966.156 909.252 952.706 905.425 946.073 L 906.594 944.688 C 910.731 943.999 909.863 944.456 912.76 942.386 C 915.021 940.772 928.406 949.594 930.78 950.95 C 960.801 967.191 988.477 972.724 1022.11 974.287 C 1021.9 963.026 1020.71 884.96 1024.29 879.904 C 1026.41 882.401 1027.75 887.053 1027.68 890.22 C 1027 918.06 1028.29 946.605 1027.46 974.376 C 1091.24 972.296 1147.86 947.054 1186.95 895.774 C 1213.66 860.738 1229.03 819.005 1229.09 774.843 C 1216.96 775.067 1142.61 776.582 1135.28 774.324 L 1134.46 772.668 L 1135.66 770.802 C 1139.84 767.809 1159.57 769.053 1165.69 769.079 C 1186.76 769.287 1207.83 769.24 1228.9 768.937 C 1228.12 726.053 1215.31 689.01 1190.57 653.862 C 1191.11 650.055 1191.99 646.11 1192.76 642.326 z" />
<path fill="rgb(47,48,51)" d="M 1023.56 427.442 C 1024.55 427.807 1026.62 428.52 1026.67 429.35 C 1028.09 453.915 1028.84 542.842 1026.75 560.007 C 1067.49 560.37 1110.56 573 1144.58 596.303 C 1146.92 597.905 1146.5 597.435 1146.79 599.597 C 1143.08 598.826 1133.85 590.248 1128.46 587.695 C 1107.31 577.682 1089.19 569.92 1065.91 565.387 C 1010.09 554.97 952.414 567.019 905.435 598.914 C 862.393 628.219 831.785 672.482 819.56 723.099 C 816.353 736.373 814.972 750.552 812.996 764.026 C 812.248 769.128 814.672 796.449 815.432 801.246 C 819.883 829.342 828.716 858.521 844.697 882.311 C 847.841 886.991 846.911 889.644 850.913 892.628 C 853.833 892.726 852.384 893.003 855.146 890.847 C 855.451 888.992 856.001 887.133 854.705 885.352 C 832.287 854.551 820.673 811.743 821 774 L 879 774 C 886.613 774.028 908.779 775.516 914.024 772.099 C 910.709 770.31 831.323 770.998 821 771 C 820.972 768.412 820.97 765.824 820.993 763.235 C 821.288 714.104 846.786 661.236 881.656 627.092 C 919.444 590.236 970.216 569.729 1023 570 C 1022.94 575.347 1023.14 581.491 1023.37 586.883 C 1024.37 610.02 1019.93 638.659 1025.07 660.925 C 1027.91 657.878 1023.71 575.961 1026.99 570.436 L 1029.75 570 C 1056.68 569.494 1085.16 575.831 1109.81 586.384 C 1116.75 589.356 1135.88 599.653 1141.74 603.881 L 1141.22 604.436 C 1135.79 603.072 1121.37 593.672 1114.89 590.637 C 1086.54 577.34 1059.15 571.314 1028.05 570.979 C 1027.59 583.757 1029.01 658.978 1025.88 664.119 L 1024.38 664.096 C 1020.41 659.525 1022.07 639.224 1022.08 631.86 L 1021.9 570.942 C 970.714 571.477 921.63 591.401 884.55 626.696 C 845.385 664.021 822.827 715.497 821.931 769.592 C 834.387 769.18 911.299 767.571 917.55 771.178 L 915.66 770.04 L 916.251 772.472 C 906.156 777.045 887.666 775.134 876.001 775.094 L 822.312 775.108 C 823.149 810.447 830.972 840.376 847.217 871.852 C 850.027 877.297 860.278 888.863 859.658 893.918 L 858.693 892.508 L 857.351 892.309 C 854.266 895.513 855.231 894.342 854.086 899.191 L 852.794 898.951 L 854.274 898.044 L 851.964 897.769 C 828.77 861.204 814.926 828.545 812.209 784.428 C 809.223 727.945 828.807 672.592 866.651 630.555 C 908.195 584.144 961.695 563.49 1022.74 560.194 C 1021.61 548.622 1020.92 432.239 1023.56 427.442 z" />
<path fill="rgb(47,48,51)" d="M 683.889 769.546 C 700.993 768.842 722.491 769.394 739.895 769.462 C 758.503 769.535 792.856 768.305 810.571 770.899 L 811.104 772.567 L 809.671 773.004 C 775.959 776.654 742.332 774.638 708.41 775.181 C 704.001 775.251 682.502 775.588 679.619 773.975 L 679.443 772.324 C 681.597 769.303 680.177 770.221 683.889 769.546 z" />
<path fill="rgb(47,48,51)" d="M 1262.95 769.419 C 1286.17 768.587 1310.69 770.197 1334.09 769.441 C 1344.57 769.103 1358.15 769.121 1368.41 770.211 L 1369.61 772.23 C 1364.26 776.087 1359.84 775.295 1353.3 775.148 C 1338.95 774.996 1251.54 776.456 1244.38 773.492 C 1248.98 769.403 1256.95 769.609 1262.95 769.419 z" />
<path fill="rgb(174,145,110)" d="M 1048.47 465.87 C 1114.42 465.733 1185.21 498.054 1234.21 541.356 C 1293.6 594.557 1329.33 669.24 1333.5 748.867 C 1319.01 748.611 1304.06 748.785 1289.53 748.773 C 1287.61 696.749 1262.7 636.812 1228.29 598.112 C 1178.68 542.309 1121.51 515.963 1048.46 510.187 C 1048.37 495.415 1048.37 480.642 1048.47 465.87 z" />
<path fill="rgb(203,193,181)" d="M 997.517 467.424 C 1000.49 467.14 999.299 466.671 1001.38 468.216 C 1002.96 475.01 1002.18 503.418 1002.1 511.662 C 954.811 515.143 901.995 536.481 864.837 565.599 C 803.873 613.372 771.809 673.186 761.809 748.875 C 749.319 748.64 736.283 748.838 723.75 748.858 L 720.18 748.447 C 717.043 743.897 721.456 723.766 722.664 717.553 C 732.187 667.784 753.917 621.158 785.905 581.859 C 838.343 517.001 914.534 475.798 997.517 467.424 z" />
<path fill="url(#az-rose-se)" d="M 1289.25 795.949 L 1332.89 796.039 C 1327.48 849.421 1311.73 897.547 1281.23 942.11 C 1235.69 1008.94 1165.38 1054.85 1085.87 1069.67 C 1074.09 1072.12 1060.39 1073.61 1048.41 1074.67 C 1048.49 1060.14 1048.48 1045.62 1048.38 1031.09 C 1180.01 1018.19 1273.05 926.957 1289.25 795.949 z" />
<path fill="url(#az-rose-sw)" d="M 718.719 795.968 L 762.601 796.01 C 765.423 844.66 791.223 900.082 822.425 937.046 C 867.523 990.852 932.188 1024.49 1002.13 1030.52 L 1002.09 1074.18 C 943.935 1071.36 879.034 1044.96 834.217 1008.63 C 765.319 952.789 728.817 882.792 718.719 795.968 z" />
<path fill="rgb(203,193,181)" d="M 849.463 955.024 L 848.074 955.646 L 847.678 954.653 C 852.011 944.457 871.897 911.572 878.066 900.781 C 899.33 863.039 920.906 825.474 942.791 788.088 C 948.342 778.607 954.574 768.415 959.813 758.717 C 965.567 748.067 969.999 738.042 977.087 728.115 C 986.729 714.612 1003.31 712.43 1016.1 704.241 C 1034.59 692.406 1203.03 583.022 1204.46 582.805 L 1203.93 585.09 C 1199.65 595.348 1183.1 622.104 1176.81 632.84 C 1162.47 657.73 1148.37 682.755 1134.51 707.912 C 1121.46 731.261 1108.42 754.609 1095.45 778.029 C 1088.53 790.523 1083.97 804.712 1074.93 815.709 C 1063.27 829.904 1049.73 832.35 1034.49 840.724 C 1025.89 845.455 1015.6 852.163 1007.06 857.461 L 905.739 920.454 C 895.621 926.841 856.923 952.607 849.463 955.024 z" />
<path fill="url(#az-rose-needle)" d="M 1110.53 682.315 L 1111.19 684.205 C 1108.86 686.868 1106.8 688.065 1106.87 690.69 C 1109.72 692.169 1115.29 694.969 1117.65 696.855 C 1123.16 701.261 1123.27 710.06 1130.9 710.092 L 1134.51 707.912 C 1121.46 731.261 1108.42 754.609 1095.45 778.029 C 1088.53 790.523 1083.97 804.712 1074.93 815.709 C 1063.27 829.904 1049.73 832.35 1034.49 840.724 C 1025.89 845.455 1015.6 852.163 1007.06 857.461 L 905.739 920.454 C 895.621 926.841 856.923 952.607 849.463 955.024 C 854.952 946.492 878.753 922.785 887.184 913.778 C 924.329 874.425 961.711 835.297 999.328 796.395 C 988.514 784.1 988.27 766.925 997.429 753.613 C 1002.93 745.462 1011.57 739.958 1021.28 738.411 C 1032.51 736.675 1040 739.991 1048.71 746.165 C 1069.04 725.375 1089.49 702.188 1110.53 682.315 z" />
<path fill="rgb(125,118,108)" d="M 1110.53 682.315 C 1114.69 675.669 1144.02 646.116 1151.08 639.522 C 1167.15 624.497 1187.5 598.081 1203.93 585.09 C 1199.65 595.348 1183.1 622.104 1176.81 632.84 C 1162.47 657.73 1148.37 682.755 1134.51 707.912 L 1130.9 710.092 C 1123.27 710.06 1123.16 701.261 1117.65 696.855 C 1115.29 694.969 1109.72 692.169 1106.87 690.69 C 1106.8 688.065 1108.86 686.868 1111.19 684.205 L 1110.53 682.315 z" />
<path fill="rgb(13,17,21)" d="M 999.328 796.395 C 988.514 784.1 988.27 766.925 997.429 753.613 C 1002.93 745.462 1011.57 739.958 1021.28 738.411 C 1032.51 736.675 1040 739.991 1048.71 746.165 C 1057.76 757.154 1059.87 762.696 1058.49 777.494 C 1052.5 795.549 1040.57 806.652 1020.62 805.792 C 1015.97 803.196 1010.81 806.377 999.328 796.395 z" />
<path fill="rgb(125,118,108)" d="M 1058.49 777.494 C 1061.18 796.015 1037.08 810.999 1019.38 807.232 L 1019.27 806.259 L 1020.62 805.792 C 1040.57 806.652 1052.5 795.549 1058.49 777.494 z" />
</svg>
